<?xml version="1.0" encoding="UTF-8"?>
<svg width="215px" height="50px" viewBox="0 0 215 50" version="1.1" xmlns="http://www.w3.org/2000/svg"
>
  <!-- Generator: Sketch 58 (84663) - https://sketch.com -->
  <title>Artboard</title>
  <desc>Created with Sketch.</desc>
  <g id="Artboard" stroke="none" stroke-width="1" fill="none" fill-rule="evenodd">
    <g id="logo" transform="translate(46.857000, 18.456457)" fill="#FFFFFF" fill-rule="nonzero">
      <polygon id="Path"
               points="1.77635684e-15 0 6.459 0 6.459 9.50931429 19.378 9.50931429 19.378 0 25.837 0 25.837 23.5338286 19.378 23.5338286 19.378 13.2162857 6.46 13.2162857 6.46 23.5338286 0.001 23.5338286 0.001 0"></polygon>
      <path
        d="M39.537,-1.77635684e-15 L47.016,-1.77635684e-15 L59.986,23.5348 L52.65,23.5348 L49.81,18.1404571 L36.413,18.1404571 L33.526,23.5348 L26.661,23.5348 L39.537,-1.77635684e-15 Z M42.606,4.72114286 L42.521,4.72114286 L38.237,14.4305714 L46.889,14.4305714 L42.606,4.72114286 Z"
        id="Shape"></path>
      <path
        d="M61.482,-1.77635684e-15 L72.971,-1.77635684e-15 C77.206,-1.77635684e-15 83.563,0.878171429 83.563,6.03645714 C83.563,8.8332 80.927,10.7906286 77.019,11.2957714 L77.019,11.3628 C81.491,11.6668571 84.552,13.8253714 84.552,16.7241143 C84.552,22.6595429 77.114,23.5348 72.971,23.5348 L61.482,23.5348 L61.482,-1.77635684e-15 Z M68.074,9.50834286 L70.758,9.50834286 C73.535,9.50834286 76.972,9.06828571 76.972,6.64165714 C76.972,3.91 73.628,3.70891429 70.616,3.70891429 L68.075,3.70891429 L68.075,9.50834286 L68.074,9.50834286 Z M68.074,19.8258857 L71.181,19.8258857 C74.241,19.8258857 77.96,19.2848 77.96,16.5541143 C77.96,13.4873143 74.477,13.0152 71.181,13.0152 L68.074,13.0152 L68.074,19.8258857 Z"
        id="Shape"></path>
      <polygon id="Path" points="87.358 0 93.99 0 93.99 23.5338286 87.358 23.5338286"></polygon>
      <polygon id="Path"
               points="106.257 3.70988571 96.895 3.70988571 96.895 0 122.173 0 122.173 3.70988571 112.809 3.70988571 112.809 23.5338286 106.257 23.5338286"></polygon>
      <path
        d="M128.487,-1.77635684e-15 L135.881,-1.77635684e-15 L148.702,23.5348 L141.449,23.5348 L138.64,18.1404571 L125.396,18.1404571 L122.542,23.5348 L115.755,23.5348 L128.487,-1.77635684e-15 Z M132.088,4.72114286 L131.995,4.72114286 L127.266,14.4305714 L136.814,14.4305714 L132.088,4.72114286 Z"
        id="Shape"></path>
      <polygon id="Path"
               points="151.762 3.70988571 142.303 3.70988571 142.303 0 167.837 0 164.635 3.70988571 158.38 3.70988571 158.38 23.5338286 151.762 23.5338286"></polygon>
    </g>
    <g id="afp" transform="translate(46.000000, 8.000000)" fill="#FFFFFF" fill-rule="nonzero">
      <path
        d="M5.879,0 L7.293,0 L12.313,8.98668571 L11.008,8.98668571 L9.649,6.57851429 L3.27,6.57851429 L1.912,8.98668571 L0.698,8.98668571 L5.879,0 Z M6.496,0.85 L3.742,5.80622857 L9.233,5.80622857 L6.496,0.85 Z"
        id="Shape"></path>
      <polygon id="Path"
               points="12.773 0 18.741 0 18.741 0.772285714 14.013 0.772285714 14.013 3.97897143 18.525 3.97897143 18.525 4.75125714 14.013 4.75125714 14.013 8.98668571 12.773 8.98668571"></polygon>
      <path
        d="M20.035,0 L23.115,0 C25.461,0 26.984,0.85 26.984,2.55 C26.984,4.22182857 25.229,5.09805714 22.99,5.09805714 L21.271,5.09805714 L21.271,8.98668571 L20.036,8.98668571 L20.036,0 L20.035,0 Z M21.271,4.32674286 L22.13,4.32674286 C23.993,4.32674286 25.749,4.17131429 25.749,2.55097143 C25.749,1.41634286 24.853,0.773257143 23.277,0.773257143 L21.272,0.773257143 L21.272,4.32674286 L21.271,4.32674286 Z"
        id="Shape"></path>
    </g>
    <path
      d="M33.4068359,35.2488051 L27.5519871,35.0136171 L25.6228581,27.6160159 L22,27.3707277 L25.5797972,41.9494995 L29.3748991,42 L28.5553064,38.8415547 L38,39.0825143 L35.1838163,29.6547931 L37.9397147,29.8279376 L36.8947699,26.4573903 L30.7743788,26 L33.4068359,35.2488051 Z M1.66954672,26.9880106 L5.38415526,27.2173288 L7.38973814,38.2154904 L19.0135585,38.5101111 L19.7962249,41.9407721 L24,42 L20.248704,26.5825274 L16.2436528,26.3152426 L18.0673268,34.3459356 L11.0875316,34.0695388 L8.99328725,23.5968348 L1,23 L1.66954672,26.9880106 Z M20.2292379,20.6910801 L24.0009877,21.0069181 L22.1607021,14.1986901 L27.9854874,14.8259385 L30.5400046,23.5055807 L37,24 L35.9347314,20.6837008 L33.0823646,20.4298496 L30.4974546,12.0675215 L21.2899476,10.9753713 L20.6121876,8.46047413 L17,8 L20.2292379,20.6910801 Z M12.5742808,10.6737068 L1.90603862,9.38506277 L3.64020863,18.8432813 L0,18.5157636 L0.648765381,22.3679217 L8.70801075,23 L6.77255317,13.382614 L13.3577541,14.1019284 L15.0160541,21.3608815 L19,21.7052342 L15.7716568,8.49127645 L11.965773,8 L12.5742808,10.6737068 Z"
      id="isologo" fill="#FFFFFF" fill-rule="nonzero"></path>
  </g>
</svg>
