<?xml version="1.0" encoding="UTF-8"?>
<svg xmlns:xlink="http://www.w3.org/1999/xlink" width="204px" height="35px" viewBox="0 0 204 35" version="1.1"
     xmlns="http://www.w3.org/2000/svg">
  <!-- Generator: Sketch 58 (84663) - https://sketch.com -->
  <title>logo-habitat</title>
  <desc>Created with Sketch.</desc>
  <defs>
    <path
      d="M23.5551269,29.9366038 L19.1639903,29.7602128 L17.7171436,24.2120119 L15,24.0280458 L17.6848479,34.9621246 L20.5311743,35 L19.9164798,32.631166 L27,32.8118857 L24.8878622,25.7410948 L26.954786,25.8709532 L26.1710774,23.3430427 L21.5807841,23 L23.5551269,29.9366038 Z M1.46577163,23.9385341 L4.04984714,24.1075054 L5.44503523,32.211414 L13.5311711,32.4285029 L14.0756347,34.9563584 L17,35 L14.3904028,23.639757 L11.6042802,23.4428103 L12.872923,29.3601631 L8.01741327,29.1565023 L6.56054765,21.439773 L1,21 L1.46577163,23.9385341 Z M14.2604665,19.5183101 L16.9006914,19.7551886 L15.6124915,14.6490176 L19.6898412,15.1194539 L21.4780032,21.6291855 L26,22 L25.254312,19.5127756 L23.2576552,19.3223872 L21.4482182,13.0506411 L15.0029633,12.2315285 L14.5285313,10.3453556 L12,10 L14.2604665,19.5183101 Z M8.6034553,11.9607183 L1.30413169,11.0157127 L2.49066906,17.9517396 L0,17.71156 L0.443892103,20.5364759 L5.95811262,21 L4.63385217,13.9472503 L9.13951593,14.4747475 L10.2741423,19.7979798 L13,20.0505051 L10.7911336,10.3602694 L8.18710782,10 L8.6034553,11.9607183 Z"
      id="path-1"></path>
  </defs>
  <g id="logo-habitat" stroke="none" stroke-width="1" fill="none" fill-rule="evenodd">
    <g id="Group" transform="translate(35.000000, 10.000000)" fill="#FFFFFF" fill-rule="nonzero">
      <polygon id="Path"
               points="0.857 0.764 7.316 0.764 7.316 10.553 20.235 10.553 20.235 0.764 26.694 0.764 26.694 24.99 20.235 24.99 20.235 14.369 7.317 14.369 7.317 24.99 0.858 24.99 0.858 0.764"></polygon>
      <path
        d="M40.394,0.764 L47.873,0.764 L60.843,24.991 L53.507,24.991 L50.667,19.438 L37.27,19.438 L34.383,24.991 L27.518,24.991 L40.394,0.764 Z M43.463,5.624 L43.378,5.624 L39.094,15.619 L47.746,15.619 L43.463,5.624 Z"
        id="Shape"></path>
      <path
        d="M62.339,0.764 L73.828,0.764 C78.063,0.764 84.42,1.668 84.42,6.978 C84.42,9.857 81.784,11.872 77.876,12.392 L77.876,12.461 C82.348,12.774 85.409,14.996 85.409,17.98 C85.409,24.09 77.971,24.991 73.828,24.991 L62.339,24.991 L62.339,0.764 Z M68.931,10.552 L71.615,10.552 C74.392,10.552 77.829,10.099 77.829,7.601 C77.829,4.789 74.485,4.582 71.473,4.582 L68.932,4.582 L68.932,10.552 L68.931,10.552 Z M68.931,21.173 L72.038,21.173 C75.098,21.173 78.817,20.616 78.817,17.805 C78.817,14.648 75.334,14.162 72.038,14.162 L68.931,14.162 L68.931,21.173 Z"
        id="Shape"></path>
      <polygon id="Path" points="88.215 0.764 94.847 0.764 94.847 24.99 88.215 24.99"></polygon>
      <polygon id="Path"
               points="107.114 4.583 97.752 4.583 97.752 0.764 123.03 0.764 123.03 4.583 113.666 4.583 113.666 24.99 107.114 24.99"></polygon>
      <path
        d="M129.344,0.764 L136.738,0.764 L149.559,24.991 L142.306,24.991 L139.497,19.438 L126.253,19.438 L123.399,24.991 L116.612,24.991 L129.344,0.764 Z M132.945,5.624 L132.852,5.624 L128.123,15.619 L137.671,15.619 L132.945,5.624 Z"
        id="Shape"></path>
      <polygon id="Path"
               points="152.619 4.583 143.16 4.583 143.16 0.764 168.694 0.764 165.492 4.583 159.237 4.583 159.237 24.99 152.619 24.99"></polygon>
    </g>
    <g id="Group" transform="translate(35.000000, 0.000000)" fill="#FFFFFF" fill-rule="nonzero">
      <path
        d="M5.879,0 L7.293,0 L12.313,9.251 L11.008,9.251 L9.649,6.772 L3.27,6.772 L1.912,9.251 L0.698,9.251 L5.879,0 Z M6.496,0.875 L3.742,5.977 L9.233,5.977 L6.496,0.875 Z"
        id="Shape"></path>
      <polygon id="Path"
               points="12.773 0 18.741 0 18.741 0.795 14.013 0.795 14.013 4.096 18.525 4.096 18.525 4.891 14.013 4.891 14.013 9.251 12.773 9.251 12.773 0"></polygon>
      <path
        d="M20.035,0 L23.115,0 C25.461,0 26.984,0.875 26.984,2.625 C26.984,4.346 25.229,5.248 22.99,5.248 L21.271,5.248 L21.271,9.251 L20.036,9.251 L20.036,0 L20.035,0 Z M21.271,4.454 L22.13,4.454 C23.993,4.454 25.749,4.294 25.749,2.626 C25.749,1.458 24.853,0.796 23.277,0.796 L21.272,0.796 L21.272,4.454 L21.271,4.454 Z"
        id="Shape"></path>
    </g>
    <mask id="mask-2" fill="white">
      <use xlink:href="#path-1"></use>
    </mask>
    <use id="SVGID_20_" fill="#FFFFFF" xlink:href="#path-1"></use>
  </g>
</svg>
